# xmcd
#
# Track frame offsets:
#	183
#	8733
#	27145
#	56508
#	92695
#	111020
#	127058
#	150095
#	162370
#	180958
#	204933
#	217083
#	231095
#	248495
#	262383
#	280308
#
# Disc length: 3941 seconds
# Revision: 4
# Processed by: cddbd v1.5.2PL0 Copyright (c) Steve Scherf et al.
# Submitted via: dBpowerAMP V12.0
#
DISCID=cf0f6310,d00f6210
DTITLE=Ella Fitzgerald - For the Love of Ella ~ Monuments of Swing [dBP-LITE-1-FLAC@]
DYEAR=1989
DGENRE=Jazz
TTITLE0=A-Tisket A-Tasket
TTITLE1=Oh Lady, Be Good
TTITLE2=Stompin' at the Savoy
TTITLE3=How High the Moon
TTITLE4=Mr. Paganini
TTITLE5=Sweet Georgia Brown
TTITLE6=Mack the Knife
TTITLE7=Caravan
TTITLE8=A Night in Tunisia
TTITLE9=Rockin' in Rythm
TTITLE10=Honeysuckle Rose
TTITLE11=I Got Rhythm
TTITLE12=A Fine Romance
TTITLE13=On the Sunny Side of the Street
TTITLE14=Party Blues
TTITLE15=Cottontail
EXTD=
EXTT0=
EXTT1=
EXTT2=
EXTT3=
EXTT4=
EXTT5=
EXTT6=
EXTT7=
EXTT8=
EXTT9=
EXTT10=
EXTT11=
EXTT12=
EXTT13=
EXTT14=
EXTT15=
PLAYORDER=
